<mxfile host="app.diagrams.net" modified="2023-05-19T17:40:00.245Z" agent="Mozilla/5.0 (Windows NT 10.0; Win64; x64) AppleWebKit/537.36 (KHTML, like Gecko) Chrome/110.0.0.0 YaBrowser/23.3.4.603 Yowser/2.5 Safari/537.36" etag="lVCdUjqhoGn0874U-zT3" version="21.3.2" type="device">
  <diagram name="Страница 1" id="Pb2mFA5OPGo9a01avhnO">
    <mxGraphModel dx="1290" dy="569" grid="1" gridSize="10" guides="1" tooltips="1" connect="1" arrows="1" fold="1" page="1" pageScale="1" pageWidth="827" pageHeight="1169" math="0" shadow="0">
      <root>
        <mxCell id="0" />
        <mxCell id="1" parent="0" />
        <mxCell id="Gukk3LiFeYjdp7rrloEt-1" value="" style="ellipse;html=1;shape=startState;fillColor=#000000;strokeColor=#ff0000;" vertex="1" parent="1">
          <mxGeometry x="384" y="80" width="30" height="30" as="geometry" />
        </mxCell>
        <mxCell id="Gukk3LiFeYjdp7rrloEt-2" value="" style="edgeStyle=orthogonalEdgeStyle;html=1;verticalAlign=bottom;endArrow=open;endSize=8;strokeColor=#ff0000;rounded=0;entryX=0.5;entryY=0;entryDx=0;entryDy=0;" edge="1" source="Gukk3LiFeYjdp7rrloEt-1" parent="1" target="Gukk3LiFeYjdp7rrloEt-5">
          <mxGeometry relative="1" as="geometry">
            <mxPoint x="415" y="340" as="targetPoint" />
          </mxGeometry>
        </mxCell>
        <mxCell id="Gukk3LiFeYjdp7rrloEt-3" value="" style="ellipse;html=1;shape=endState;fillColor=#000000;strokeColor=#ff0000;" vertex="1" parent="1">
          <mxGeometry x="710" y="180" width="30" height="30" as="geometry" />
        </mxCell>
        <mxCell id="Gukk3LiFeYjdp7rrloEt-5" value="Статус &quot;В очереди&quot;" style="rounded=1;whiteSpace=wrap;html=1;arcSize=40;fontColor=#000000;fillColor=#ffffc0;strokeColor=#ff0000;" vertex="1" parent="1">
          <mxGeometry x="339" y="170" width="120" height="40" as="geometry" />
        </mxCell>
        <mxCell id="Gukk3LiFeYjdp7rrloEt-6" value="" style="edgeStyle=orthogonalEdgeStyle;html=1;verticalAlign=bottom;endArrow=open;endSize=8;strokeColor=#ff0000;rounded=0;entryX=0.5;entryY=0;entryDx=0;entryDy=0;" edge="1" source="Gukk3LiFeYjdp7rrloEt-5" parent="1" target="Gukk3LiFeYjdp7rrloEt-8">
          <mxGeometry relative="1" as="geometry">
            <mxPoint x="400" y="270" as="targetPoint" />
          </mxGeometry>
        </mxCell>
        <mxCell id="Gukk3LiFeYjdp7rrloEt-7" value="Клиент оформляет &lt;br&gt;заказ" style="text;html=1;align=center;verticalAlign=middle;resizable=0;points=[];autosize=1;strokeColor=none;fillColor=none;" vertex="1" parent="1">
          <mxGeometry x="334" y="120" width="130" height="40" as="geometry" />
        </mxCell>
        <mxCell id="Gukk3LiFeYjdp7rrloEt-8" value="Статус &quot;Готовится&quot;" style="rounded=1;whiteSpace=wrap;html=1;arcSize=40;fontColor=#000000;fillColor=#ffffc0;strokeColor=#ff0000;" vertex="1" parent="1">
          <mxGeometry x="339" y="260" width="120" height="40" as="geometry" />
        </mxCell>
        <mxCell id="Gukk3LiFeYjdp7rrloEt-9" value="" style="edgeStyle=orthogonalEdgeStyle;html=1;verticalAlign=bottom;endArrow=open;endSize=8;strokeColor=#ff0000;rounded=0;entryX=0.5;entryY=0;entryDx=0;entryDy=0;" edge="1" source="Gukk3LiFeYjdp7rrloEt-8" parent="1" target="Gukk3LiFeYjdp7rrloEt-10">
          <mxGeometry relative="1" as="geometry">
            <mxPoint x="399" y="365" as="targetPoint" />
          </mxGeometry>
        </mxCell>
        <mxCell id="Gukk3LiFeYjdp7rrloEt-10" value="Статус &quot;В ожидании курьера&quot;" style="rounded=1;whiteSpace=wrap;html=1;arcSize=40;fontColor=#000000;fillColor=#ffffc0;strokeColor=#ff0000;" vertex="1" parent="1">
          <mxGeometry x="339" y="350" width="120" height="40" as="geometry" />
        </mxCell>
        <mxCell id="Gukk3LiFeYjdp7rrloEt-11" value="Статус &quot;Отменен&quot;" style="rounded=1;whiteSpace=wrap;html=1;arcSize=40;fontColor=#000000;fillColor=#ffffc0;strokeColor=#ff0000;" vertex="1" parent="1">
          <mxGeometry x="570" y="130" width="120" height="40" as="geometry" />
        </mxCell>
        <mxCell id="Gukk3LiFeYjdp7rrloEt-12" value="Статус &quot;Доставляется&quot;" style="rounded=1;whiteSpace=wrap;html=1;arcSize=40;fontColor=#000000;fillColor=#ffffc0;strokeColor=#ff0000;" vertex="1" parent="1">
          <mxGeometry x="530" y="350" width="120" height="40" as="geometry" />
        </mxCell>
        <mxCell id="Gukk3LiFeYjdp7rrloEt-13" value="Статус &quot;Завершен&quot;" style="rounded=1;whiteSpace=wrap;html=1;arcSize=40;fontColor=#000000;fillColor=#ffffc0;strokeColor=#ff0000;" vertex="1" parent="1">
          <mxGeometry x="610" y="260" width="120" height="40" as="geometry" />
        </mxCell>
        <mxCell id="Gukk3LiFeYjdp7rrloEt-14" value="Кухня начала готовить&lt;br&gt;блюда из заказа" style="text;html=1;align=center;verticalAlign=middle;resizable=0;points=[];autosize=1;strokeColor=none;fillColor=none;" vertex="1" parent="1">
          <mxGeometry x="324" y="210" width="150" height="40" as="geometry" />
        </mxCell>
        <mxCell id="Gukk3LiFeYjdp7rrloEt-15" value="Кухня отметила заказ &lt;br&gt;как приготовленный" style="text;html=1;align=center;verticalAlign=middle;resizable=0;points=[];autosize=1;strokeColor=none;fillColor=none;" vertex="1" parent="1">
          <mxGeometry x="329" y="305" width="140" height="40" as="geometry" />
        </mxCell>
        <mxCell id="Gukk3LiFeYjdp7rrloEt-16" value="Курьер &lt;br&gt;забрал &lt;br&gt;заказ" style="text;html=1;align=center;verticalAlign=middle;resizable=0;points=[];autosize=1;strokeColor=none;fillColor=none;" vertex="1" parent="1">
          <mxGeometry x="464" y="340" width="60" height="60" as="geometry" />
        </mxCell>
        <mxCell id="Gukk3LiFeYjdp7rrloEt-20" value="" style="edgeStyle=orthogonalEdgeStyle;html=1;verticalAlign=bottom;endArrow=open;endSize=8;strokeColor=#ff0000;rounded=0;exitX=1;exitY=0.5;exitDx=0;exitDy=0;entryX=0;entryY=0.5;entryDx=0;entryDy=0;" edge="1" source="Gukk3LiFeYjdp7rrloEt-10" parent="1" target="Gukk3LiFeYjdp7rrloEt-12">
          <mxGeometry relative="1" as="geometry">
            <mxPoint x="200" y="470" as="targetPoint" />
          </mxGeometry>
        </mxCell>
        <mxCell id="Gukk3LiFeYjdp7rrloEt-22" value="" style="edgeStyle=orthogonalEdgeStyle;html=1;verticalAlign=bottom;endArrow=open;endSize=8;strokeColor=#ff0000;rounded=0;exitX=0.75;exitY=0;exitDx=0;exitDy=0;entryX=0.5;entryY=1;entryDx=0;entryDy=0;" edge="1" parent="1" source="Gukk3LiFeYjdp7rrloEt-12" target="Gukk3LiFeYjdp7rrloEt-13">
          <mxGeometry relative="1" as="geometry">
            <mxPoint x="540" y="380" as="targetPoint" />
            <mxPoint x="469" y="380" as="sourcePoint" />
          </mxGeometry>
        </mxCell>
        <mxCell id="Gukk3LiFeYjdp7rrloEt-25" value="Заказ был&amp;nbsp;&lt;br&gt;доставлен" style="text;html=1;align=center;verticalAlign=middle;resizable=0;points=[];autosize=1;strokeColor=none;fillColor=none;" vertex="1" parent="1">
          <mxGeometry x="600" y="305" width="80" height="40" as="geometry" />
        </mxCell>
        <mxCell id="Gukk3LiFeYjdp7rrloEt-26" value="" style="edgeStyle=orthogonalEdgeStyle;html=1;verticalAlign=bottom;endArrow=open;endSize=8;strokeColor=#ff0000;rounded=0;exitX=0.25;exitY=0;exitDx=0;exitDy=0;entryX=0.25;entryY=1;entryDx=0;entryDy=0;" edge="1" parent="1" source="Gukk3LiFeYjdp7rrloEt-12" target="Gukk3LiFeYjdp7rrloEt-11">
          <mxGeometry relative="1" as="geometry">
            <mxPoint x="540" y="380" as="targetPoint" />
            <mxPoint x="469" y="380" as="sourcePoint" />
          </mxGeometry>
        </mxCell>
        <mxCell id="Gukk3LiFeYjdp7rrloEt-27" value="" style="edgeStyle=orthogonalEdgeStyle;html=1;verticalAlign=bottom;endArrow=open;endSize=8;strokeColor=#ff0000;rounded=0;exitX=1;exitY=0.5;exitDx=0;exitDy=0;entryX=0.25;entryY=1;entryDx=0;entryDy=0;" edge="1" parent="1" source="Gukk3LiFeYjdp7rrloEt-5" target="Gukk3LiFeYjdp7rrloEt-11">
          <mxGeometry relative="1" as="geometry">
            <mxPoint x="560" y="220" as="targetPoint" />
            <mxPoint x="570" y="360" as="sourcePoint" />
            <Array as="points">
              <mxPoint x="500" y="190" />
              <mxPoint x="500" y="220" />
              <mxPoint x="600" y="220" />
            </Array>
          </mxGeometry>
        </mxCell>
        <mxCell id="Gukk3LiFeYjdp7rrloEt-28" value="" style="edgeStyle=orthogonalEdgeStyle;html=1;verticalAlign=bottom;endArrow=open;endSize=8;strokeColor=#ff0000;rounded=0;exitX=1;exitY=0.5;exitDx=0;exitDy=0;entryX=0.25;entryY=1;entryDx=0;entryDy=0;" edge="1" parent="1" source="Gukk3LiFeYjdp7rrloEt-8" target="Gukk3LiFeYjdp7rrloEt-11">
          <mxGeometry relative="1" as="geometry">
            <mxPoint x="610" y="180" as="targetPoint" />
            <mxPoint x="469" y="200" as="sourcePoint" />
            <Array as="points">
              <mxPoint x="560" y="280" />
              <mxPoint x="560" y="260" />
              <mxPoint x="600" y="260" />
            </Array>
          </mxGeometry>
        </mxCell>
        <mxCell id="Gukk3LiFeYjdp7rrloEt-29" value="" style="edgeStyle=orthogonalEdgeStyle;html=1;verticalAlign=bottom;endArrow=open;endSize=8;strokeColor=#ff0000;rounded=0;exitX=1;exitY=0;exitDx=0;exitDy=0;entryX=0.25;entryY=1;entryDx=0;entryDy=0;" edge="1" parent="1" source="Gukk3LiFeYjdp7rrloEt-10" target="Gukk3LiFeYjdp7rrloEt-11">
          <mxGeometry relative="1" as="geometry">
            <mxPoint x="600" y="180" as="targetPoint" />
            <mxPoint x="469" y="200" as="sourcePoint" />
            <Array as="points">
              <mxPoint x="459" y="330" />
              <mxPoint x="560" y="330" />
              <mxPoint x="560" y="260" />
              <mxPoint x="600" y="260" />
            </Array>
          </mxGeometry>
        </mxCell>
        <mxCell id="Gukk3LiFeYjdp7rrloEt-30" value="Клиент решил &lt;br&gt;отменить заказ" style="text;html=1;align=center;verticalAlign=middle;resizable=0;points=[];autosize=1;strokeColor=none;fillColor=none;" vertex="1" parent="1">
          <mxGeometry x="540" y="180" width="110" height="40" as="geometry" />
        </mxCell>
        <mxCell id="Gukk3LiFeYjdp7rrloEt-31" value="" style="edgeStyle=orthogonalEdgeStyle;html=1;verticalAlign=bottom;endArrow=open;endSize=8;strokeColor=#ff0000;rounded=0;exitX=1;exitY=0.5;exitDx=0;exitDy=0;entryX=0.5;entryY=0;entryDx=0;entryDy=0;" edge="1" parent="1" source="Gukk3LiFeYjdp7rrloEt-11" target="Gukk3LiFeYjdp7rrloEt-3">
          <mxGeometry relative="1" as="geometry">
            <mxPoint x="610" y="180" as="targetPoint" />
            <mxPoint x="469" y="200" as="sourcePoint" />
            <Array as="points">
              <mxPoint x="725" y="150" />
            </Array>
          </mxGeometry>
        </mxCell>
        <mxCell id="Gukk3LiFeYjdp7rrloEt-32" value="" style="edgeStyle=orthogonalEdgeStyle;html=1;verticalAlign=bottom;endArrow=open;endSize=8;strokeColor=#ff0000;rounded=0;exitX=0.75;exitY=0;exitDx=0;exitDy=0;entryX=0.5;entryY=1;entryDx=0;entryDy=0;" edge="1" parent="1" source="Gukk3LiFeYjdp7rrloEt-13" target="Gukk3LiFeYjdp7rrloEt-3">
          <mxGeometry relative="1" as="geometry">
            <mxPoint x="735" y="200" as="targetPoint" />
            <mxPoint x="700" y="160" as="sourcePoint" />
            <Array as="points">
              <mxPoint x="700" y="240" />
              <mxPoint x="725" y="240" />
            </Array>
          </mxGeometry>
        </mxCell>
      </root>
    </mxGraphModel>
  </diagram>
</mxfile>
